<svg xmlns="http://www.w3.org/2000/svg" viewBox="85 415 225 225" width="225" height="225">
  
  <path fill="#FFFFFF" fill-rule="evenodd" d="M 185 509 L 180 515 L 177 523 L 177 531 L 181 540 L 234 577 L 222 522 L 218 513 L 210 506 L 203 504 L 193 505 Z M 147 435 L 130 447 L 114 464 L 108 473 L 97 498 L 93 520 L 94 544 L 100 566 L 109 584 L 127 606 L 138 615 L 146 619 L 157 601 L 148 595 L 131 577 L 123 564 L 116 542 L 115 521 L 122 494 L 131 479 L 143 466 L 165 452 L 176 448 L 193 445 L 218 447 L 241 456 L 257 468 L 272 487 L 281 509 L 283 534 L 281 547 L 275 564 L 268 576 L 258 588 L 241 601 L 251 618 L 253 619 L 272 605 L 285 590 L 297 569 L 303 550 L 305 537 L 304 511 L 298 489 L 288 470 L 278 457 L 260 441 L 247 433 L 226 425 L 208 422 L 188 422 L 165 427 Z"></path>
</svg>