<svg xmlns="http://www.w3.org/2000/svg" viewBox="0 0 1024 1024" width="1024" height="1024">
  <path d="M 185 509 L 180 515 L 177 523 L 177 531 L 181 540 L 234 577 L 222 522 L 218 513 L 210 506 L 203 504 L 193 505 Z&#xA;    M 629 482 L 629 489 L 636 498 L 640 513 L 640 557 L 638 567 L 634 575 L 629 579 L 629 586 L 675 586 L 675 580 L 667 571 L 664 561 L 663 507 L 669 500 L 677 497 L 687 498 L 694 502 L 700 510 L 703 521 L 703 559 L 701 567 L 693 579 L 693 586 L 738 586 L 738 579 L 731 573 L 727 563 L 725 524 L 722 509 L 712 495 L 695 488 L 682 488 L 674 490 L 665 496 L 664 482 Z&#xA;    M 322 482 L 322 490 L 329 497 L 333 512 L 333 601 L 330 614 L 323 625 L 323 632 L 367 632 L 367 625 L 360 617 L 357 608 L 356 580 L 357 579 L 361 582 L 374 586 L 394 587 L 410 583 L 421 577 L 430 569 L 438 556 L 441 546 L 440 522 L 431 504 L 420 493 L 407 486 L 395 483 L 381 483 L 371 485 L 358 491 L 356 486 L 348 482 Z&#xA;    M 374 493 L 388 493 L 400 499 L 412 514 L 417 526 L 420 540 L 418 559 L 414 567 L 406 575 L 398 578 L 387 578 L 376 573 L 365 561 L 356 540 L 354 530 L 354 516 L 356 508 L 365 497 Z&#xA;    M 878 487 L 867 497 L 863 506 L 883 506 L 887 496 L 893 490 L 897 488 L 904 488 L 908 490 L 916 500 L 917 518 L 916 519 L 904 513 L 889 512 L 881 514 L 870 520 L 864 526 L 857 539 L 856 556 L 860 567 L 871 579 L 884 585 L 905 586 L 926 583 L 939 587 L 940 511 L 936 501 L 927 491 L 909 482 L 890 482 Z&#xA;    M 885 520 L 894 520 L 903 525 L 915 542 L 918 560 L 915 570 L 908 577 L 896 578 L 889 575 L 879 565 L 875 557 L 872 546 L 873 532 L 877 525 Z&#xA;    M 805 481 L 805 489 L 811 498 L 813 506 L 813 561 L 810 572 L 805 579 L 805 586 L 843 586 L 843 578 L 838 571 L 835 559 L 835 481 Z&#xA;    M 554 481 L 541 485 L 531 491 L 517 506 L 510 524 L 510 546 L 515 560 L 521 569 L 531 578 L 539 583 L 551 587 L 572 588 L 581 586 L 595 579 L 607 567 L 613 554 L 597 554 L 593 567 L 583 578 L 570 582 L 564 581 L 553 575 L 542 563 L 535 549 L 531 534 L 617 533 L 616 522 L 607 502 L 590 487 L 573 481 Z&#xA;    M 531 509 L 534 501 L 542 492 L 551 488 L 561 488 L 571 492 L 584 503 L 591 513 L 595 523 L 531 524 Z&#xA;    M 818 441 L 809 447 L 806 455 L 807 461 L 815 470 L 825 471 L 834 465 L 837 454 L 835 448 L 830 443 Z&#xA;    M 775 436 L 754 448 L 754 480 L 738 482 L 739 491 L 754 492 L 754 559 L 759 572 L 767 580 L 773 583 L 791 586 L 791 574 L 781 566 L 776 552 L 776 492 L 791 491 L 792 481 L 776 480 Z&#xA;    M 485 436 L 463 448 L 464 480 L 448 481 L 448 491 L 463 492 L 463 555 L 468 571 L 475 579 L 482 583 L 501 587 L 502 576 L 491 567 L 486 553 L 486 492 L 501 491 L 501 481 L 486 480 Z&#xA;    M 147 435 L 130 447 L 114 464 L 108 473 L 97 498 L 93 520 L 94 544 L 100 566 L 109 584 L 127 606 L 138 615 L 146 619 L 157 601 L 148 595 L 131 577 L 123 564 L 116 542 L 115 521 L 122 494 L 131 479 L 143 466 L 165 452 L 176 448 L 193 445 L 218 447 L 241 456 L 257 468 L 272 487 L 281 509 L 283 534 L 281 547 L 275 564 L 268 576 L 258 588 L 241 601 L 251 618 L 253 619 L 272 605 L 285 590 L 297 569 L 303 550 L 305 537 L 304 511 L 298 489 L 288 470 L 278 457 L 260 441 L 247 433 L 226 425 L 208 422 L 188 422 L 165 427 Z" fill="#1f627d" fill-rule="evenodd"></path>
</svg>